<?xml version="1.0" encoding="UTF-8"?>
<svg version="1.1" xmlns="http://www.w3.org/2000/svg" width="365" height="271">
<path d="M0 0 C106.26 0 212.52 0 322 0 C322 14.19 322 28.38 322 43 C215.74 43 109.48 43 0 43 C0 28.81 0 14.62 0 0 Z " fill="#FCDB58" transform="translate(31,213)"/>
<path d="M0 0 C-0.57323258 7.19146323 -2.12271986 13.72276642 -4.1875 20.625 C-4.50066162 21.68098389 -4.81382324 22.73696777 -5.13647461 23.82495117 C-11.39638988 44.54617337 -19.66641446 63.16146985 -37 77 C-36.40349099 79.2104141 -35.7974391 81.41825403 -35.1875 83.625 C-34.85105469 84.85476562 -34.51460937 86.08453125 -34.16796875 87.3515625 C-32.53868616 93.68762043 -32.53868616 93.68762043 -28.07348633 98.02880859 C-25.67576318 98.9338303 -23.27825296 99.67703745 -20.8125 100.375 C-19.96751953 100.63410156 -19.12253906 100.89320313 -18.25195312 101.16015625 C-16.17414954 101.79406243 -14.08780015 102.39983727 -12 103 C-8.62837324 99.65002988 -8.62837324 99.65002988 -5.33203125 96.2265625 C3.4687674 86.95065647 14.45938098 81.19058215 26 76 C26.66 76 27.32 76 28 76 C30.75279738 86.7694398 33.31480475 97.57071809 35.71972656 108.4230957 C36.25976899 110.85651894 36.80554858 113.28861361 37.3515625 115.72070312 C37.69825885 117.27856972 38.04462601 118.83650962 38.390625 120.39453125 C38.55306702 121.11631058 38.71550903 121.8380899 38.88287354 122.58174133 C39.51570675 125.45625916 40 128.04607646 40 131 C37.64239846 129.95217709 35.88657008 128.90031916 33.9375 127.1875 C24.90700668 120.46266455 14.07972968 117.71002739 3 117 C2.00097656 116.93425781 1.00195312 116.86851562 -0.02734375 116.80078125 C-16.5836093 116.2607006 -33.04437711 119.92722339 -49 124 C-52.09714923 109.97868934 -55.19192396 95.95685637 -58.28400993 81.93442822 C-59.72000496 75.42260056 -61.15674491 68.91093975 -62.59521484 62.3996582 C-63.98454883 56.11065994 -65.37189022 49.82122509 -66.75787735 43.53148842 C-67.2858159 41.1372966 -67.81446051 38.74326034 -68.34383774 36.34938622 C-69.08772866 32.98488516 -69.8290596 29.61982922 -70.56982422 26.25463867 C-70.78705139 25.27495621 -71.00427856 24.29527374 -71.22808838 23.28590393 C-72.63424815 16.88149475 -73.86905982 10.45860934 -75 4 C-68.61310776 0.93735139 -62.40553016 -1.12445788 -55.5 -2.6875 C-54.61441406 -2.89955078 -53.72882812 -3.11160156 -52.81640625 -3.33007812 C-35.03387318 -7.46889089 -17.01232127 -7.29099483 0 0 Z " fill="#0097B2" transform="translate(102,46)"/>
<path d="M0 0 C12.29234429 4.98338282 23.12289643 18.14783963 31.33984375 28.21875 C32 30 32 30 31.2578125 32.40625 C30.84273438 33.2621875 30.42765625 34.118125 30 35 C29.31027635 36.66574768 28.62277268 38.3324163 27.9375 40 C27.42509766 41.2375 27.42509766 41.2375 26.90234375 42.5 C25.27947291 46.99626554 24.88008626 51.04715988 24.9375 55.8125 C24.94652344 56.78832031 24.95554687 57.76414063 24.96484375 58.76953125 C24.97644531 59.50558594 24.98804688 60.24164063 25 61 C20.98004693 62.3736278 16.95307769 63.59423128 12.8515625 64.69921875 C-18.54592008 72.82407441 -18.54592008 72.82407441 -43.8125 92.25 C-44.8953125 93.61125 -44.8953125 93.61125 -46 95 C-49.63 94.01 -53.26 93.02 -57 92 C-49.16255755 82.56363658 -40.41334426 73.93593886 -31.80710125 65.20684814 C-28.95152166 62.31011996 -26.10666823 59.40434514 -23.28442383 56.47509766 C-20.53737469 53.62432482 -17.76651038 50.79886984 -14.97718239 47.98947144 C-13.92353966 46.91992414 -12.87855443 45.84177303 -11.84277916 44.75491333 C-3.7170146 36.24746138 -3.7170146 36.24746138 0.60702515 35.62426758 C3.03198242 35.91796875 3.03198242 35.91796875 5.15080261 36.52026367 C7.1958132 37.23865495 7.1958132 37.23865495 9.875 35.9375 C12.60104251 33.45199065 13.79029573 31.49470122 15 28 C15 23.75360376 14.68114993 21.78131904 11.875 18.5625 C8.20528171 16.56808788 6.12942195 16.42043201 2 17 C-2.24028619 19.2587937 -2.24028619 19.2587937 -5 23 C-5.13445466 26.0252298 -5.15008528 28.51342281 -4.25378418 31.41923523 C-4 34 -4 34 -5.50305176 36.21784973 C-6.26581421 36.96427231 -7.02857666 37.71069489 -7.81445312 38.47973633 C-8.6728479 39.33445023 -9.53124268 40.18916412 -10.41564941 41.06977844 C-11.36129761 41.98132187 -12.3069458 42.8928653 -13.28125 43.83203125 C-14.25377917 44.79081469 -15.22491031 45.75101808 -16.19470215 46.71257019 C-18.75700229 49.24627227 -21.33631334 51.76192089 -23.92004395 54.27374268 C-27.03073044 57.30331531 -30.12326151 60.351387 -33.21623993 63.3990202 C-35.62928213 65.77660592 -38.04627383 68.14949092 -40.47277832 70.51338196 C-45.02485428 74.96530083 -49.4215138 79.45790167 -53.53942871 84.31669617 C-54.97087724 85.96643611 -56.3682115 87.54639989 -58 89 C-58.66 89 -59.32 89 -60 89 C-60.5345256 87.75579353 -61.05208611 86.50429064 -61.5625 85.25 C-61.99755859 84.20585937 -61.99755859 84.20585937 -62.44140625 83.140625 C-63.11997663 80.54022944 -63.11492752 79.45187525 -62 77 C-60.3524116 75.64316249 -58.68244788 74.31336388 -57 73 C-41.33863574 54.36750876 -35.94409662 31.07708099 -30 8 C-28.98421875 7.91363281 -27.9684375 7.82726563 -26.921875 7.73828125 C-17.01957053 6.77170242 -8.9615624 4.4807812 0 0 Z " fill="#A6A6A6" transform="translate(135,47)"/>
<path d="M0 0 C4.9796357 21.03614887 9.73631004 42.11628686 14.36401367 63.23242188 C15.27314659 67.37982737 16.1880927 71.52592944 17.10426235 75.67178535 C17.81826345 78.90701613 18.52850113 82.14306437 19.23765755 85.3793602 C19.57400804 86.91145352 19.91170841 88.44325117 20.25082207 89.97473526 C20.71862287 92.08924426 21.18114229 94.20484195 21.64233398 96.32080078 C22.03702126 98.11700363 22.03702126 98.11700363 22.43968201 99.94949341 C23 103 23 103 23 107 C23.77859375 106.68546875 24.5571875 106.3709375 25.359375 106.046875 C46.11313424 98.10880119 72.11560034 93.00949187 94 99 C94.9178125 99.23332031 95.835625 99.46664062 96.78125 99.70703125 C103.12308389 101.70252209 103.12308389 101.70252209 105.1484375 104.69921875 C106.00365285 107.11313304 106.4948004 109.48747397 107 112 C107.35400003 113.34847411 107.71668511 114.6946849 108.0859375 116.0390625 C108.47540719 117.48398525 108.86342007 118.92930143 109.25 120.375 C109.43804199 121.0772168 109.62608398 121.77943359 109.81982422 122.50292969 C111.11553268 127.65340195 111.11553268 127.65340195 110 131 C109.44054687 130.55269531 108.88109375 130.10539063 108.3046875 129.64453125 C89.9789132 115.82654387 66.08053507 114.95170358 44.08203125 117.828125 C32.20224588 119.54173502 32.20224588 119.54173502 20.4921875 122.1328125 C17 123 17 123 13 123 C9.11193616 109.37564805 5.6258545 95.67228271 2.26171875 81.91015625 C1.73092118 79.74585034 1.19997871 77.58157997 0.66889954 75.41734314 C-0.43294896 70.92426809 -1.53274982 66.43069817 -2.63110352 61.93676758 C-4.04021029 56.17231452 -5.45504836 50.40928514 -6.87142658 44.64661503 C-7.96419768 40.19753897 -9.05374475 35.74767825 -10.14232445 31.297575 C-10.66318528 29.17019245 -11.18511269 27.04307074 -11.70812416 24.9162159 C-12.43414546 21.96195313 -13.15576608 19.00664986 -13.8762207 16.05102539 C-14.0927832 15.17371765 -14.3093457 14.29640991 -14.5324707 13.39251709 C-14.7271846 12.58981888 -14.9218985 11.78712067 -15.12251282 10.96009827 C-15.29300298 10.26355668 -15.46349314 9.56701509 -15.63914967 8.84936619 C-16 7 -16 7 -16 4 C-14.08594633 3.32586789 -12.16863974 2.6609668 -10.25 2 C-9.18265625 1.62875 -8.1153125 1.2575 -7.015625 0.875 C-4 0 -4 0 0 0 Z " fill="#FFDE59" transform="translate(23,75)"/>
<path d="M0 0 C7.44924614 2.90082408 7.44924614 2.90082408 10.77685547 4.3125 C16.25354727 6.61847549 21.63124587 8.4832554 27.375 10.01953125 C38.85475241 13.38063203 48.28314977 17.00957325 54.43997192 27.83032227 C59.21063964 37.04797608 62.95616596 46.72180208 66.36962891 56.51269531 C67.76868007 60.50701319 69.44510522 64.32720552 71.24008179 68.15838623 C72 70 72 70 72 72 C65.30996958 69.95897377 59.25555709 67.27455794 53.015625 64.109375 C49.67331848 62.87982182 48.30852174 62.78338885 45 64 C42.94916404 65.36460228 42.94916404 65.36460228 41.1875 67.0625 C40.28064453 67.88427734 40.28064453 67.88427734 39.35546875 68.72265625 C38.68451172 69.35494141 38.68451172 69.35494141 38 70 C37.52691406 69.17757812 37.05382812 68.35515625 36.56640625 67.5078125 C27.95229769 52.96625692 17.26546172 41.66960395 2 34 C3.38081223 29.8575633 5.59825558 28.67796901 9 26 C8.33501617 21.61110675 6.81242323 18.0188515 5 14 C-7.58853286 23.48222282 -7.58853286 23.48222282 -14 37 C-15.1725131 36.04882866 -16.33787015 35.08882991 -17.5 34.125 C-18.1496875 33.59132812 -18.799375 33.05765625 -19.46875 32.5078125 C-19.9740625 32.01023438 -20.479375 31.51265625 -21 31 C-21 30.34 -21 29.68 -21 29 C-19.84628906 28.65582031 -18.69257812 28.31164062 -17.50390625 27.95703125 C-12.25117499 25.97987309 -8.8246699 22.63606646 -4.9375 18.6875 C-4.24978516 18.03587891 -3.56207031 17.38425781 -2.85351562 16.71289062 C-1.02250864 14.88188364 0.58291267 13.1674798 2 11 C2.17066507 7.82976597 2.17066507 7.82976597 1 5 C0.814375 4.05125 0.62875 3.1025 0.4375 2.125 C0.293125 1.42375 0.14875 0.7225 0 0 Z " fill="#A6A6A6" transform="translate(136,6)"/>
<path d="M0 0 C17.82 0 35.64 0 54 0 C54 4.29 54 8.58 54 13 C36.18 13 18.36 13 0 13 C0 8.71 0 4.42 0 0 Z " fill="#0097B2" transform="translate(272,178)"/>
<path d="M0 0 C2.97 0 5.94 0 9 0 C8.49166939 11.81868679 6.12360926 23.38877162 4 35 C3.26249512 34.99202393 2.52499023 34.98404785 1.76513672 34.97583008 C0.78818848 34.96962646 -0.18875977 34.96342285 -1.1953125 34.95703125 C-2.64188232 34.94506714 -2.64188232 34.94506714 -4.11767578 34.93286133 C-6.76975638 34.99463688 -9.25988245 35.26391852 -11.875 35.6875 C-14.96147227 36.07399921 -15.93548116 36.02608208 -18.9375 34.8125 C-22.46948873 31.70863112 -22.92441227 29.92217026 -23.3125 25.1875 C-23.15898804 20.32929808 -22.00854083 16.07281414 -18.53515625 12.48828125 C-13.82005781 8.46488429 -11.17480866 7.67501007 -5 8 C-4.01 8.66 -3.02 9.32 -2 10 C-1.34 6.7 -0.68 3.4 0 0 Z M-11.25 17.0625 C-13.61188815 19.6774476 -13.9272401 21.50752483 -14 25 C-13.01951062 27.06402685 -13.01951062 27.06402685 -11 28 C-7.86861441 27.92171536 -6.45727596 27.41154837 -4.125 25.3125 C-2.61619051 22.21105827 -3.18019633 20.27921467 -4 17 C-6.94905709 16.09889922 -8.41184751 15.72226133 -11.25 17.0625 Z " fill="#000000" transform="translate(243,123)"/>
<path d="M0 0 C2.97 0 5.94 0 9 0 C8.67 3.3 8.34 6.6 8 10 C9.32 9.34 10.64 8.68 12 8 C16.02190466 7.79088884 19.76577743 8.10238359 23.0625 10.5 C26.05542821 18.48114189 23.04728828 27.11550289 21 35 C18.03 35 15.06 35 12 35 C12.66 29.39 13.32 23.78 14 18 C12.35 17.67 10.7 17.34 9 17 C6.22656726 19.77343274 6.09117126 22.83761138 5.4375 26.5625 C4.11993243 33.88006757 4.11993243 33.88006757 3 35 C1.48071962 35.07179964 -0.04167482 35.08392007 -1.5625 35.0625 C-2.38878906 35.05347656 -3.21507812 35.04445312 -4.06640625 35.03515625 C-4.70449219 35.02355469 -5.34257812 35.01195312 -6 35 C-5.30728737 30.8189163 -4.61348766 26.63801485 -3.91870117 22.45727539 C-3.68272858 21.036426 -3.44704771 19.61552813 -3.21166992 18.19458008 C-2.87235865 16.14651735 -2.531982 14.09863404 -2.19140625 12.05078125 C-1.98717041 10.82012939 -1.78293457 9.58947754 -1.57250977 8.3215332 C-1.09243044 5.53625419 -0.57189895 2.76762343 0 0 Z " fill="#000000" transform="translate(333,123)"/>
<path d="M0 0 C3.13180809 1.62390049 5.24339744 3.00266026 7.375 5.8125 C9.02097693 11.57341925 8.06723517 16.08005036 5.27734375 21.203125 C2.65560285 24.89120089 -0.8093284 26.60310947 -5 28 C-10.211794 28.39334294 -13.63896805 27.97343088 -18 25 C-20.6032837 21.47297047 -21.22560709 18.77839034 -20.9375 14.5 C-20.23716231 10.15936536 -19.00356612 7.31162418 -16 4 C-10.83374115 0.32290667 -6.25810497 -0.80749742 0 0 Z M-9.125 9.75 C-10.99536096 11.99443315 -11.72235054 13.13095556 -12 16 C-11.67 16.99 -11.34 17.98 -11 19 C-8.70705512 19.85974801 -8.70705512 19.85974801 -6 20 C-3.30079809 18.0505764 -2.20532612 16.56122472 -1.0625 13.4375 C-0.75987663 10.96770412 -0.75987663 10.96770412 -2.25 9.1875 C-5.11646744 7.24239709 -6.51989405 7.60461863 -9.125 9.75 Z " fill="#000000" transform="translate(191,131)"/>
<path d="M0 0 C5.5 3 5.5 3 7 6 C7.13677734 9.33736713 7.04283944 12.6585233 7 16 C1.06 16 -4.88 16 -11 16 C-10.67 16.99 -10.34 17.98 -10 19 C-8.33388095 19.042721 -6.66617115 19.04063832 -5 19 C-4.67 18.67 -4.34 18.34 -4 18 C-2.31391034 17.92794489 -0.62499341 17.91613932 1.0625 17.9375 C1.98160156 17.94652344 2.90070313 17.95554688 3.84765625 17.96484375 C4.55792969 17.97644531 5.26820313 17.98804688 6 18 C3.37351608 22.97649586 0.41260386 26.19579871 -5 28 C-10.23874905 28.39537729 -13.53136583 27.80588657 -18 25 C-20.84807871 20.72788193 -20.49332986 17.0116049 -20 12 C-18.20646165 6.71902596 -15.39000798 4.20104749 -11 1 C-7.27796101 -0.24067966 -3.86626692 -0.54711324 0 0 Z M-8 8 C-8.99 9.485 -8.99 9.485 -10 11 C-7.36 11 -4.72 11 -2 11 C-2.33 10.01 -2.66 9.02 -3 8 C-5.41619823 7.74969023 -5.41619823 7.74969023 -8 8 Z " fill="#000000" transform="translate(291,131)"/>
<path d="M0 0 C2.64 0 5.28 0 8 0 C6.66193488 10.07484323 4.94274694 20.02723235 3 30 C2.443125 29.98839844 1.88625 29.97679687 1.3125 29.96484375 C-2.64124822 29.91809335 -6.40331581 29.99923605 -10.3125 30.625 C-15.23652695 31.1257485 -15.23652695 31.1257485 -18 29 C-20.70201284 24.94698074 -20.53670457 21.75715415 -20 17 C-18.5858269 13.36355488 -17.08610901 10.44316963 -14 8 C-10.49852959 6.8328432 -7.67329964 6.86642547 -4 7 C-3.34 7.33 -2.68 7.66 -2 8 C-1.34 5.36 -0.68 2.72 0 0 Z M-9 14 C-10.66846734 15.69495956 -10.66846734 15.69495956 -12 18 C-11.77802187 20.6984589 -11.77802187 20.6984589 -11 23 C-9.21858253 23.86358623 -9.21858253 23.86358623 -7 24 C-4.56304526 22.47981752 -4.56304526 22.47981752 -3 20 C-3.14025199 17.29294488 -3.14025199 17.29294488 -4 15 C-5.65 14.67 -7.3 14.34 -9 14 Z " fill="#000000" transform="translate(168,166)"/>
<path d="M0 0 C2.77629659 1.80782103 3.74085099 2.62605826 4.6875 5.75 C4.6875 7.07 4.6875 8.39 4.6875 9.75 C1.3875 9.75 -1.9125 9.75 -5.3125 9.75 C-5.6425 9.09 -5.9725 8.43 -6.3125 7.75 C-8.78516765 8.09444881 -8.78516765 8.09444881 -11.3125 8.75 C-12.7908226 11.70664519 -12.37282783 14.49229737 -12.3125 17.75 C-9.02174004 17.37095792 -9.02174004 17.37095792 -6.3125 15.75 C-4.62641034 15.67794489 -2.93749341 15.66613932 -1.25 15.6875 C-0.33089844 15.69652344 0.58820313 15.70554688 1.53515625 15.71484375 C2.24542969 15.72644531 2.95570313 15.73804688 3.6875 15.75 C1.71601185 20.31555151 -0.17672673 22.95835304 -4.3125 25.75 C-8.03453899 26.99067966 -11.44623308 27.29711324 -15.3125 26.75 C-20.8125 23.75 -20.8125 23.75 -22.3125 20.75 C-22.82671665 15.66684193 -23.11984489 10.48817687 -20.8125 5.8125 C-15.34241553 -0.88835348 -8.26977871 -3.12067121 0 0 Z " fill="#000000" transform="translate(322.3125,132.25)"/>
<path d="M0 0 C0.99 0 1.98 0 3 0 C5.66666667 0 8.33333333 0 11 0 C9.96324187 7.75362732 8.83622588 15.39277848 7 23 C6.443125 22.98839844 5.88625 22.97679687 5.3125 22.96484375 C1.35875178 22.91809335 -2.40331581 22.99923605 -6.3125 23.625 C-11.35340502 24.13763441 -11.35340502 24.13763441 -14 22 C-16.56125857 18.54230094 -16.41746439 15.17464389 -16 11 C-14.61140642 6.91678429 -12.96518027 3.8347505 -9.6875 1 C-6.31607829 -0.2544825 -3.57278003 -0.19848778 0 0 Z M-6.875 8.6875 C-8.27861489 11.57270838 -7.92054342 12.98731243 -7 16 C-5.21858253 16.86358623 -5.21858253 16.86358623 -3 17 C-0.62580082 15.45952223 -0.62580082 15.45952223 1 13 C1.41780879 10.37305578 1.41780879 10.37305578 1 8 C-0.04862094 6.74843946 -0.04862094 6.74843946 -2.375 6.6875 C-5.0899904 6.75496105 -5.0899904 6.75496105 -6.875 8.6875 Z " fill="#000000" transform="translate(191,173)"/>
<path d="M0 0 C2.64 0 5.28 0 8 0 C7.67 5.28 7.34 10.56 7 16 C8.65 16 10.3 16 12 16 C12.99 10.72 13.98 5.44 15 0 C17.64 0 20.28 0 23 0 C21.25603865 20.74396135 21.25603865 20.74396135 19 23 C17.62580976 23.0471825 16.24949468 23.03727443 14.875 23 C11.79046424 22.94614303 9.32392929 23.1239463 6.25 23.6875 C3 24 3 24 0.125 22.9375 C-2.72805663 20.33618366 -2.6855035 18.82268276 -3 15 C-2.61110745 12.30766695 -2.16357103 9.76459705 -1.5625 7.125 C-1.41490234 6.43664062 -1.26730469 5.74828125 -1.11523438 5.0390625 C-0.75317961 3.35725971 -0.37793884 1.67830466 0 0 Z " fill="#000000" transform="translate(222,173)"/>
<path d="M0 0 C2.97 0 5.94 0 9 0 C9 1.65 9 3.3 9 5 C10.32 5.33 11.64 5.66 13 6 C13.125 11.75 13.125 11.75 12 14 C10.35 14 8.7 14 7 14 C6.67 17.63 6.34 21.26 6 25 C7.32 25.33 8.64 25.66 10 26 C9.67 28.31 9.34 30.62 9 33 C7.39667209 33.08121924 5.79215974 33.13929134 4.1875 33.1875 C2.84751953 33.23970703 2.84751953 33.23970703 1.48046875 33.29296875 C-1 33 -1 33 -2.8046875 31.75390625 C-5.03394315 28.48287427 -4.38325515 24.80113714 -4 21 C-3.4831374 18.57472162 -2.80136922 16.35402207 -2 14 C-2.99 14 -3.98 14 -5 14 C-4.67 11.36 -4.34 8.72 -4 6 C-3.01 5.67 -2.02 5.34 -1 5 C-0.67 3.35 -0.34 1.7 0 0 Z " fill="#000000" transform="translate(258,125)"/>
<path d="M0 0 C2.97 0 5.94 0 9 0 C8.46588214 8.85898937 6.85710087 17.34520917 5 26 C8.3 26 11.6 26 15 26 C14.67 28.31 14.34 30.62 14 33 C7.73 33 1.46 33 -5 33 C-4.40175834 21.78296888 -2.21322957 10.99408921 0 0 Z " fill="#000000" transform="translate(153,125)"/>
<path d="M0 0 C3.0625 2.3125 3.0625 2.3125 5 5 C5 5.99 5 6.98 5 8 C1.66666667 8 -1.66666667 8 -5 8 C-4.43410156 8.27714844 -3.86820312 8.55429688 -3.28515625 8.83984375 C-2.55167969 9.20207031 -1.81820313 9.56429687 -1.0625 9.9375 C0.03384766 10.47697266 0.03384766 10.47697266 1.15234375 11.02734375 C3 12 3 12 4 13 C4.3125 16.375 4.3125 16.375 4 20 C0.97269825 23.13169147 -2.06764308 23.93093652 -6.375 24.25 C-10.28684555 23.98021755 -12.06851728 23.5866024 -15 21 C-15.8125 17.8125 -15.8125 17.8125 -16 15 C-13.36 15 -10.72 15 -8 15 C-7.67 15.66 -7.34 16.32 -7 17 C-6.01 17 -5.02 17 -4 17 C-4.63808594 16.65066406 -5.27617187 16.30132812 -5.93359375 15.94140625 C-6.75988281 15.48636719 -7.58617187 15.03132812 -8.4375 14.5625 C-9.26121094 14.11003906 -10.08492187 13.65757812 -10.93359375 13.19140625 C-13 12 -13 12 -14 11 C-14.46054122 6.93188591 -14.66005471 4.83039141 -12.0625 1.5625 C-7.94747355 -0.53700329 -4.53148478 -0.96693527 0 0 Z " fill="#000000" transform="translate(261,173)"/>
<path d="M0 0 C2.97 0 5.94 0 9 0 C9.33 0.66 9.66 1.32 10 2 C10.598125 1.67 11.19625 1.34 11.8125 1 C14 0 14 0 17 0 C16.67 3.3 16.34 6.6 16 10 C13.36 10.33 10.72 10.66 8 11 C7.01 16.28 6.02 21.56 5 27 C2.03 27 -0.94 27 -4 27 C-3.50137275 17.76679887 -1.95827206 9.01544116 0 0 Z " fill="#000000" transform="translate(204,131)"/>
<path d="M0 0 C2.64 0 5.28 0 8 0 C7.67 1.65 7.34 3.3 7 5 C8.32 5 9.64 5 11 5 C10.67 7.31 10.34 9.62 10 12 C8.68 12.33 7.36 12.66 6 13 C5.67 15.64 5.34 18.28 5 21 C5.99 21.33 6.98 21.66 8 22 C8 23.98 8 25.96 8 28 C6.56344146 28.08131463 5.1255517 28.13933559 3.6875 28.1875 C2.48673828 28.23970703 2.48673828 28.23970703 1.26171875 28.29296875 C-1 28 -1 28 -2.80859375 26.8359375 C-4.50616939 24.22000128 -4.12451674 22.49469644 -3.75 19.4375 C-3.64171875 18.46683594 -3.5334375 17.49617188 -3.421875 16.49609375 C-3 14 -3 14 -2 12 C-2.99 12 -3.98 12 -5 12 C-4.67 9.69 -4.34 7.38 -4 5 C-3.01 5 -2.02 5 -1 5 C-0.67 3.35 -0.34 1.7 0 0 Z " fill="#000000" transform="translate(208,168)"/>
<path d="M0 0 C1.65 0 3.3 0 5 0 C5.33 2.64 5.66 5.28 6 8 C6.99 5.36 7.98 2.72 9 0 C10.98 0 12.96 0 15 0 C15.33 2.64 15.66 5.28 16 8 C16.99 5.36 17.98 2.72 19 0 C20.65 0 22.3 0 24 0 C22.35433477 5.68502535 19.70967216 10.76681636 17 16 C15.35 16 13.7 16 12 16 C11.34 13.69 10.68 11.38 10 9 C9.01 11.31 8.02 13.62 7 16 C5.02 16 3.04 16 1 16 C0.67 10.72 0.34 5.44 0 0 Z " fill="#151207" transform="translate(121,229)"/>
<path d="M0 0 C0.66 0 1.32 0 2 0 C3.66666667 0 5.33333333 0 7 0 C6.68954268 1.9169986 6.37655329 3.83358723 6.0625 5.75 C5.80146484 7.35101563 5.80146484 7.35101563 5.53515625 8.984375 C5.11295829 11.36347593 4.62797116 13.66915211 4 16 C2.06318839 16.08107583 0.1254066 16.13922475 -1.8125 16.1875 C-2.89144531 16.22230469 -3.97039062 16.25710937 -5.08203125 16.29296875 C-8 16 -8 16 -9.859375 14.69921875 C-11.81155193 11.79100997 -11.40866695 9.38609758 -11 6 C-7.74991657 1.01653874 -5.81505637 -0.14537641 0 0 Z " fill="#0E0C05" transform="translate(82,229)"/>
<path d="M0 0 C0.99 0.66 1.98 1.32 3 2 C3 1.34 3 0.68 3 0 C4.32 0 5.64 0 7 0 C6.85764543 1.72945653 6.71095618 3.45855654 6.5625 5.1875 C6.48128906 6.15042969 6.40007812 7.11335937 6.31640625 8.10546875 C6.02333849 10.78649602 5.57296246 13.3662986 5 16 C2.66666667 16 0.33333333 16 -2 16 C-2.99 16.04125 -3.98 16.0825 -5 16.125 C-8 16 -8 16 -10 14 C-10.5707271 10.94210425 -10.51760408 8.06337107 -10 5 C-7.13777559 0.99288582 -5.0026662 -0.92154377 0 0 Z " fill="#0D0B04" transform="translate(155,229)"/>
<path d="M0 0 C2.375 1 2.375 1 4 3 C4.8719346 9.86648501 4.8719346 9.86648501 2.125 13.4375 C-1.68705287 16.24048005 -4.26449511 16.33231613 -9 16 C-10.9375 14.9375 -10.9375 14.9375 -12 13 C-12.54763378 8.77539655 -12.473273 6.72568527 -10.125 3.125 C-6.78965791 -0.21034209 -4.65840593 -0.37267247 0 0 Z " fill="#0F0D05" transform="translate(211,229)"/>
<path d="M0 0 C1.77049689 -0.05410687 3.54146849 -0.09284119 5.3125 -0.125 C6.29863281 -0.14820313 7.28476562 -0.17140625 8.30078125 -0.1953125 C11 0 11 0 14 2 C14.5 5.375 14.5 5.375 14 9 C11.28086874 12.1190035 9.82626618 12.93764029 5.6875 13.25 C4.800625 13.1675 3.91375 13.085 3 13 C2.67 15.31 2.34 17.62 2 20 C0.35 20 -1.3 20 -3 20 C-2.22602467 13.29221378 -1.14231412 6.65425699 0 0 Z " fill="#131006" transform="translate(56,225)"/>
<path d="M0 0 C1.65 0 3.3 0 5 0 C5 1.98 5 3.96 5 6 C5.928125 5.79375 6.85625 5.5875 7.8125 5.375 C11 5 11 5 14 7 C13.67 11.62 13.34 16.24 13 21 C11.35 21 9.7 21 8 21 C8 17.37 8 13.74 8 10 C6.68 10.33 5.36 10.66 4 11 C3.34 14.3 2.68 17.6 2 21 C0.35 21 -1.3 21 -3 21 C-2.69073032 18.24960167 -2.3777116 15.49971822 -2.0625 12.75 C-1.97548828 11.97269531 -1.88847656 11.19539062 -1.79882812 10.39453125 C-1.71181641 9.64042969 -1.62480469 8.88632813 -1.53515625 8.109375 C-1.456604 7.41811523 -1.37805176 6.72685547 -1.29711914 6.01464844 C-0.99455017 3.96304687 -0.53587616 2.00217465 0 0 Z " fill="#110F06" transform="translate(104,224)"/>
<path d="M0 0 C1.65 0 3.3 0 5 0 C5.99 2.64 6.98 5.28 8 8 C9.32 5.36 10.64 2.72 12 0 C13.98 0 15.96 0 18 0 C10.59133238 13.21901862 10.59133238 13.21901862 6.75 19.375 C6.09257812 20.43847656 6.09257812 20.43847656 5.421875 21.5234375 C4.71804687 22.25433594 4.71804687 22.25433594 4 23 C2.68 23 1.36 23 0 23 C0.350625 22.21625 0.70125 21.4325 1.0625 20.625 C2.3012146 15.83530355 1.70183891 11.84421422 1 7 C0.90203125 6.27425781 0.8040625 5.54851562 0.703125 4.80078125 C0.48213687 3.19861731 0.24331476 1.59892557 0 0 Z " fill="#161307" transform="translate(164,229)"/>
<path d="M0 0 C1.875 1.125 1.875 1.125 3 3 C3.1875 6.1875 3.1875 6.1875 3 9 C-0.63 9 -4.26 9 -8 9 C-8 9.99 -8 10.98 -8 12 C-4.7 11.67 -1.4 11.34 2 11 C1 14 1 14 -0.625 15.1875 C-3.86144609 16.29470524 -6.60613185 16.25139764 -10 16 C-12.35858628 13.64141372 -12.36946499 12.92368052 -12.5 9.6875 C-12.44053025 7.05383977 -12.33415753 5.50238857 -10.8671875 3.296875 C-7.42462363 0.16071734 -4.53749908 -0.8066665 0 0 Z " fill="#1C1809" transform="translate(304,229)"/>
<path d="M0 0 C1.65 0 3.3 0 5 0 C4.67 3.63 4.34 7.26 4 11 C5.32 11 6.64 11 8 11 C8.66 7.7 9.32 4.4 10 1 C11.65 0.67 13.3 0.34 15 0 C14.85677897 1.54191154 14.71028211 3.08351892 14.5625 4.625 C14.48128906 5.48351562 14.40007812 6.34203125 14.31640625 7.2265625 C13.98027315 10.17291436 13.50965712 13.07910792 13 16 C10.87527424 16.05386629 8.75016348 16.09273071 6.625 16.125 C5.44164062 16.14820313 4.25828125 16.17140625 3.0390625 16.1953125 C0 16 0 16 -2 14 C-2.40435072 8.84452833 -1.57849109 4.83412897 0 0 Z " fill="#181508" transform="translate(241,229)"/>
<path d="M0 0 C1.875 1.3125 1.875 1.3125 3 3 C3 3.99 3 4.98 3 6 C1.35 6 -0.3 6 -2 6 C-2 5.34 -2 4.68 -2 4 C-4.04836882 4.56362302 -4.04836882 4.56362302 -6 6 C-6.81584568 9.05908413 -6.81584568 9.05908413 -7 12 C-5.68 12 -4.36 12 -3 12 C-3 11.34 -3 10.68 -3 10 C-1.35 10 0.3 10 2 10 C0.25 14.875 0.25 14.875 -2 16 C-8.18035883 16.44948064 -8.18035883 16.44948064 -10.9375 14.9375 C-12.64483445 11.82412541 -12.42008548 9.48070825 -12 6 C-8.5733161 0.74575136 -6.23961399 -0.50935624 0 0 Z " fill="#110F06" transform="translate(287,229)"/>
<path d="M0 0 C1.875 1.3125 1.875 1.3125 3 3 C3 3.99 3 4.98 3 6 C1.35 6 -0.3 6 -2 6 C-2 5.34 -2 4.68 -2 4 C-4.04836882 4.56362302 -4.04836882 4.56362302 -6 6 C-6.81584568 9.05908413 -6.81584568 9.05908413 -7 12 C-5.68 12 -4.36 12 -3 12 C-3 11.34 -3 10.68 -3 10 C-1.35 10 0.3 10 2 10 C0.25 14.875 0.25 14.875 -2 16 C-8.18035883 16.44948064 -8.18035883 16.44948064 -10.9375 14.9375 C-12.64483445 11.82412541 -12.42008548 9.48070825 -12 6 C-8.5733161 0.74575136 -6.23961399 -0.50935624 0 0 Z " fill="#110F06" transform="translate(270,229)"/>
<path d="M0 0 C0.99 0.66 1.98 1.32 3 2 C3 2.99 3 3.98 3 5 C0.36 4.67 -2.28 4.34 -5 4 C-5 4.66 -5 5.32 -5 6 C-3.576875 6.433125 -3.576875 6.433125 -2.125 6.875 C1 8 1 8 3 10 C2.63318342 12.93453261 2.13562754 13.86437246 0 16 C-7.17205692 16.56921087 -7.17205692 16.56921087 -10 14.625 C-11 13 -11 13 -11 11 C-7.37471432 10.79859524 -5.13498292 11.14223235 -2 13 C-4.12780579 10.65941363 -6.11562221 9.29299694 -9 8 C-9.1875 5.125 -9.1875 5.125 -9 2 C-5.53001271 -0.31332486 -4.07490752 -0.33957563 0 0 Z " fill="#121006" transform="translate(319,229)"/>
<path d="M0 0 C0.99 0.66 1.98 1.32 3 2 C3 2.99 3 3.98 3 5 C0.69 4.67 -1.62 4.34 -4 4 C-2.49336217 7.01327566 0.03166411 7.61056618 3 9 C3.1875 11.375 3.1875 11.375 3 14 C-0.68717438 16.45811625 -2.64345704 16.31118164 -7 16 C-7.99 15.34 -8.98 14.68 -10 14 C-10 13.01 -10 12.02 -10 11 C-8.35 11 -6.7 11 -5 11 C-5 11.66 -5 12.32 -5 13 C-4.01 12.34 -3.02 11.68 -2 11 C-3.4540625 10.4121875 -3.4540625 10.4121875 -4.9375 9.8125 C-8 8 -8 8 -9.0625 5.5 C-9 3 -9 3 -7.9375 1.1875 C-5.17428518 -0.50608328 -3.18170002 -0.33142708 0 0 Z " fill="#120F06" transform="translate(233,229)"/>
<path d="M0 0 C3.4375 0.875 3.4375 0.875 4.875 2.9375 C5.1534375 3.8965625 5.1534375 3.8965625 5.4375 4.875 C2.7975 4.545 0.1575 4.215 -2.5625 3.875 C-1.05586217 6.88827566 1.46916411 7.48556618 4.4375 8.875 C4.625 11.25 4.625 11.25 4.4375 13.875 C0.74263897 16.33824069 -1.19543092 16.26491688 -5.5625 15.875 C-7.5 14.5 -7.5 14.5 -8.5625 12.875 C-8.5625 12.215 -8.5625 11.555 -8.5625 10.875 C-6.9125 10.875 -5.2625 10.875 -3.5625 10.875 C-3.5625 11.535 -3.5625 12.195 -3.5625 12.875 C-2.2425 12.875 -0.9225 12.875 0.4375 12.875 C-1.92870011 10.25972619 -4.504548 8.61059438 -7.5625 6.875 C-7.25 4.5 -7.25 4.5 -6.5625 1.875 C-3.5625 -0.125 -3.5625 -0.125 0 0 Z " fill="#100E05" transform="translate(332.5625,229.125)"/>
<path d="M0 0 C1.65 0 3.3 0 5 0 C5 0.99 5 1.98 5 3 C5.99 3 6.98 3 8 3 C8 4.32 8 5.64 8 7 C6.68 7 5.36 7 4 7 C3.67 9.64 3.34 12.28 3 15 C3.99 15 4.98 15 6 15 C6 16.32 6 17.64 6 19 C3.125 19.125 3.125 19.125 0 19 C-2 17 -2 17 -2.1953125 13.7421875 C-2.17210938 12.46601563 -2.14890625 11.18984375 -2.125 9.875 C-2.10695313 8.59367188 -2.08890625 7.31234375 -2.0703125 5.9921875 C-2.04710938 5.00476563 -2.02390625 4.01734375 -2 3 C-1.34 3 -0.68 3 0 3 C0 2.01 0 1.02 0 0 Z " fill="#141207" transform="translate(93,226)"/>
<path d="M0 0 C1.65 0 3.3 0 5 0 C5 0.99 5 1.98 5 3 C5.66 3 6.32 3 7 3 C7 4.32 7 5.64 7 7 C6.01 7.33 5.02 7.66 4 8 C3.67 10.31 3.34 12.62 3 15 C3.66 15 4.32 15 5 15 C5 16.32 5 17.64 5 19 C3.00045254 19.04254356 0.99958364 19.04080783 -1 19 C-2.88059033 17.11940967 -2.12361218 14.50109962 -2.1328125 12.0078125 C-2 10 -2 10 -1 7 C-1.66 7 -2.32 7 -3 7 C-2.67 5.68 -2.34 4.36 -2 3 C-1.34 3 -0.68 3 0 3 C0 2.01 0 1.02 0 0 Z " fill="#0F0D05" transform="translate(191,226)"/>
<path d="M0 0 C1.32 0 2.64 0 4 0 C3.50130596 5.36891879 2.97772468 10.69235173 2 16 C0.35 16 -1.3 16 -3 16 C-4.23072344 12.30782967 -3.60450995 10.60432686 -2.625 6.875 C-2.34914062 5.79992187 -2.07328125 4.72484375 -1.7890625 3.6171875 C-1 1 -1 1 0 0 Z " fill="#100E05" transform="translate(252,229)"/>
<path d="M0 0 C0.99 0 1.98 0 3 0 C3 0.66 3 1.32 3 2 C4.65 2 6.3 2 8 2 C8.33 1.34 8.66 0.68 9 0 C10 1 10 1 10.0625 4.5625 C10.041875 5.696875 10.02125 6.83125 10 8 C9.01 8 8.02 8 7 8 C7 7.34 7 6.68 7 6 C5.35 6 3.7 6 2 6 C2 6.66 2 7.32 2 8 C0.68 8 -0.64 8 -2 8 C-2.125 5.125 -2.125 5.125 -2 2 C-1.34 1.34 -0.68 0.68 0 0 Z " fill="#EDCF53" transform="translate(265,233)"/>
<path d="M0 0 C0.99 0 1.98 0 3 0 C3 0.66 3 1.32 3 2 C4.65 2 6.3 2 8 2 C8.33 1.34 8.66 0.68 9 0 C10.35439668 2.70879335 10.06501451 5.00933268 10 8 C9.01 8 8.02 8 7 8 C7 7.34 7 6.68 7 6 C5.35 6 3.7 6 2 6 C2 6.66 2 7.32 2 8 C0.68 8 -0.64 8 -2 8 C-2.125 5.125 -2.125 5.125 -2 2 C-1.34 1.34 -0.68 0.68 0 0 Z " fill="#E9CB51" transform="translate(282,233)"/>
<path d="M0 0 C0.061875 0.928125 0.061875 0.928125 0.125 1.875 C0.41375 2.57625 0.7025 3.2775 1 4 C2.98723268 4.70381157 4.98777953 5.3711811 7 6 C7.33 6.99 7.66 7.98 8 9 C7.32195312 8.84402344 6.64390625 8.68804687 5.9453125 8.52734375 C-0.67057524 7.14368856 -6.32919435 6.92919823 -13 8 C-13 7.01 -13 6.02 -13 5 C-9.37 5 -5.74 5 -2 5 C-2 3.68 -2 2.36 -2 1 C-1.34 0.67 -0.68 0.34 0 0 Z " fill="#DFC24D" transform="translate(309,233)"/>
<path d="M0 0 C1.65 0 3.3 0 5 0 C5.28571429 8.57142857 5.28571429 8.57142857 3 12 C2.67 10.68 2.34 9.36 2 8 C1.01 8 0.02 8 -1 8 C-0.67 5.36 -0.34 2.72 0 0 Z " fill="#EFD053" transform="translate(97,233)"/>
<path d="M0 0 C2.125 0.375 2.125 0.375 4 1 C4.125 3.375 4.125 3.375 4 6 C3.34 6.66 2.68 7.32 2 8 C-0.625 7.625 -0.625 7.625 -3 7 C-2.25 2.25 -2.25 2.25 0 0 Z " fill="#E4C64F" transform="translate(152,233)"/>
<path d="M0 0 C2.125 0.375 2.125 0.375 4 1 C4.625 2.8125 4.625 2.8125 5 5 C4.01 6.485 4.01 6.485 3 8 C1.35 7.67 -0.3 7.34 -2 7 C-2.125 4.625 -2.125 4.625 -2 2 C-1.34 1.34 -0.68 0.68 0 0 Z " fill="#E4C74F" transform="translate(78,233)"/>
<path d="M0 0 C2.125 0.375 2.125 0.375 4 1 C4.125 3.375 4.125 3.375 4 6 C3.34 6.66 2.68 7.32 2 8 C-0.125 7.625 -0.125 7.625 -2 7 C-2.125 4.625 -2.125 4.625 -2 2 C-1.34 1.34 -0.68 0.68 0 0 Z " fill="#EFD053" transform="translate(206,233)"/>
<path d="M0 0 C3.63 0 7.26 0 11 0 C10.67 0.66 10.34 1.32 10 2 C7.71484375 2.4140625 7.71484375 2.4140625 4.9375 2.625 C4.01839844 2.69976562 3.09929687 2.77453125 2.15234375 2.8515625 C1.44207031 2.90054688 0.73179687 2.94953125 0 3 C0 2.01 0 1.02 0 0 Z " fill="#CCB147" transform="translate(296,238)"/>
<path d="M0 0 C1.65 0 3.3 0 5 0 C4.67 1.65 4.34 3.3 4 5 C2.68 5 1.36 5 0 5 C0 3.35 0 1.7 0 0 Z " fill="#E6C850" transform="translate(60,229)"/>
<path d="M0 0 C1.11375 0.556875 1.11375 0.556875 2.25 1.125 C2.25 1.785 2.25 2.445 2.25 3.125 C0.93 3.125 -0.39 3.125 -1.75 3.125 C-1.75 2.465 -1.75 1.805 -1.75 1.125 C-3.4 1.125 -5.05 1.125 -6.75 1.125 C-4.02098495 -0.69434337 -3.21400584 -1.02263822 0 0 Z " fill="#D2B649" transform="translate(330.75,238.875)"/>
</svg>
